# xmcd
# 
# Track frame offsets:
#     182
#     21725
#     39695
#     53902
#     70220
#     87830
#     101670
#     119932
#     136015
#     164335
#     183455
#     201847
#     220877
# 
# Disc length: 3146
# 
# Revision: 1
# Processed by: cddbd v1.5.2PL0 Copyright (c) Steve Scherf et al.
# Submitted via: fre:ac v1.0.31
# 
DISCID=c70c480d
DTITLE=Various Artist - Brasil Romântico CD 1
DYEAR=1993
DGENRE=MPB
TTITLE0=Fafá de Belém - Doces Palavras
TTITLE1=Joanna - Amanhã Talvez
TTITLE2=Gal Costa e Roupa Nova - Chuva de Prata
TTITLE3=Maria Bethânia - Gostoso Demais
TTITLE4=Alcione - Nem Morta
TTITLE5=Elis Regina - Fascinação
TTITLE6=Roupa Nova - Dona
TTITLE7=Roberta Miranda - Sol da Minha Vida
TTITLE8=Michael Sullivan and Paulo Massadas - Dê uma Chance ao Coração
TTITLE9=Gal Costa - Nada Mais
TTITLE10=Amado Batista - Eu e Ela
TTITLE11=Daniela Mercury - Geração Perdida
TTITLE12=Chico Buarque - Gota D' Água
EXTD=
EXTT0=
EXTT1=
EXTT2=
EXTT3=
EXTT4=
EXTT5=
EXTT6=
EXTT7=
EXTT8=
EXTT9=
EXTT10=
EXTT11=
EXTT12=
PLAYORDER=
